<svg width="144" height="67" viewBox="0 0 144 67" fill="none" xmlns="http://www.w3.org/2000/svg">
<rect y="45.9" width="5.4" height="20.7" rx="2.7" fill="#FF0566"/>
<rect x="9.90002" y="36.9" width="5.4" height="29.7" rx="2.7" fill="#FF0566"/>
<rect x="19.8" y="26.1" width="5.4" height="40.5" rx="2.7" fill="#FF0566"/>
<rect x="29.7" y="15.3" width="5.4" height="51.3" rx="2.7" fill="#FF0566"/>
<rect x="39.6" y="6.29999" width="5.4" height="60.3" rx="2.7" fill="#FF0566"/>
<rect x="49.5" y="26.1" width="5.4" height="40.5" rx="2.7" fill="#FF0566"/>
<rect x="59.4" y="18" width="5.4" height="48.6" rx="2.7" fill="#FF0566"/>
<rect x="69.3" y="10.8" width="5.4" height="55.8" rx="2.7" fill="#FF0566"/>
<rect x="79.2" y="6.29999" width="5.4" height="60.3" rx="2.7" fill="#FF0566"/>
<rect x="89.1" width="5.4" height="66.6" rx="2.7" fill="#FF0566"/>
<rect x="99" y="10.8" width="5.4" height="55.8" rx="2.7" fill="#FF0566"/>
<rect x="108.9" y="18" width="5.4" height="48.6" rx="2.7" fill="#FF0566"/>
<rect x="118.8" y="26.1" width="5.4" height="40.5" rx="2.7" fill="#FF0566"/>
<rect x="128.7" y="31.5" width="5.4" height="35.1" rx="2.7" fill="#FF0566"/>
<rect x="138.6" y="36.9" width="5.4" height="29.7" rx="2.7" fill="#FF0566"/>
</svg>
